<svg width="80" height="56" viewBox="0 0 80 56" fill="none" xmlns="http://www.w3.org/2000/svg">
<path opacity="0.2" d="M23.52 0L0 41.44V56H23.52V0Z" fill="#D5B753"/>
<rect y="41.438" width="14.56" height="14.56" fill="#D5B753"/>
<path d="M4.17682 50.3581H1.68018V49.9038C1.68018 49.769 1.71236 49.6463 1.77674 49.5356C1.84246 49.4248 1.93165 49.3348 2.04431 49.2654C2.20928 49.1627 2.46008 49.0546 2.79672 48.9412C2.9067 48.9052 2.99992 48.8712 3.07636 48.8392C3.15281 48.8058 3.22725 48.7664 3.29967 48.7211C3.37344 48.6757 3.42843 48.6244 3.46464 48.567C3.50219 48.5096 3.52097 48.4469 3.52097 48.3789C3.52097 48.1214 3.33589 47.9927 2.96571 47.9927C2.78063 47.9927 2.64114 48.0327 2.54726 48.1127C2.45472 48.1928 2.40845 48.3048 2.40845 48.4489V48.567H1.75864V48.4489C1.75864 48.1181 1.86057 47.8686 2.06443 47.7005C2.26963 47.5324 2.57006 47.4483 2.96571 47.4483C3.35734 47.4483 3.65643 47.5277 3.86298 47.6865C4.06952 47.8452 4.17279 48.076 4.17279 48.3789C4.17279 48.5497 4.12987 48.6997 4.04404 48.8292C3.95552 48.9612 3.84688 49.064 3.71813 49.1373C3.58401 49.216 3.44318 49.2854 3.29565 49.3455C3.13873 49.4095 2.9979 49.4609 2.87317 49.4996C2.74039 49.5396 2.63176 49.5863 2.54726 49.6396C2.46008 49.6943 2.41649 49.7524 2.41649 49.8137H4.17682V50.3581Z" fill="white"/>
<path d="M7.0417 48.3289H6.35366C6.35366 48.3195 6.35098 48.3055 6.34561 48.2868C6.34025 48.2668 6.32684 48.2388 6.30538 48.2028C6.28526 48.1654 6.25911 48.1321 6.22692 48.1027C6.14645 48.0293 6.02842 47.9927 5.87284 47.9927C5.67569 47.9927 5.52681 48.0607 5.42622 48.1968C5.32563 48.3355 5.27534 48.5176 5.27534 48.7431H5.29143C5.32496 48.7097 5.35983 48.6804 5.39605 48.655C5.44031 48.6244 5.48524 48.599 5.53084 48.579C5.65959 48.5216 5.81718 48.493 6.00361 48.493C6.35098 48.493 6.62861 48.5777 6.83649 48.7471C7.04572 48.9165 7.15033 49.1407 7.15033 49.4195C7.15033 49.7237 7.03767 49.9625 6.81235 50.1359C6.58569 50.3107 6.27788 50.3981 5.88894 50.3981C5.44902 50.3981 5.12244 50.272 4.90919 50.0199C4.6946 49.769 4.5873 49.4202 4.5873 48.9732V48.9112C4.5873 48.4776 4.69661 48.1254 4.91523 47.8546C5.13518 47.5837 5.45305 47.4483 5.86882 47.4483C6.26045 47.4483 6.5535 47.5384 6.74797 47.7185C6.94379 47.8986 7.0417 48.1021 7.0417 48.3289ZM5.89698 48.9932C5.73336 48.9932 5.59656 49.0306 5.48658 49.1053C5.37794 49.1814 5.32362 49.2874 5.32362 49.4235C5.32362 49.5569 5.37727 49.6616 5.48457 49.7377C5.59052 49.8151 5.72799 49.8538 5.89698 49.8538C6.07536 49.8538 6.21552 49.8157 6.31745 49.7397C6.41938 49.6623 6.47035 49.5569 6.47035 49.4235C6.47035 49.2914 6.41804 49.186 6.31343 49.1073C6.20881 49.0313 6.07 48.9932 5.89698 48.9932Z" fill="white"/>
<path d="M9.83826 49.4275L9.86642 49.2014L10.299 48.3088H11.1238V50.3581H10.5303V49.1814L10.5746 48.9392H10.5263L10.4519 49.1814L10.1018 49.8578H9.53246L9.18241 49.1814L9.10797 48.9392H9.05969L9.10395 49.1814V50.3581H8.51047V48.3088H9.33531L9.76784 49.2014L9.79601 49.4275H9.83826Z" fill="white"/>
<path d="M12.8721 48.637H11.4538V48.3128C11.4538 48.2155 11.4759 48.1321 11.5202 48.0627C11.5645 47.9933 11.6228 47.9426 11.6952 47.9106C11.7623 47.8826 11.8374 47.8559 11.9205 47.8306C11.946 47.8239 11.9836 47.8145 12.0332 47.8025C12.0842 47.7892 12.1224 47.7792 12.1479 47.7725C12.1734 47.7659 12.2042 47.7558 12.2404 47.7425C12.2766 47.7278 12.3035 47.7132 12.3209 47.6985C12.3383 47.6838 12.3531 47.6651 12.3652 47.6424C12.3786 47.6198 12.3853 47.5944 12.3853 47.5664C12.3853 47.4717 12.3209 47.4256 12.1921 47.4283C12.1264 47.4283 12.0761 47.4443 12.0413 47.4763C12.0077 47.507 11.991 47.5471 11.991 47.5964V47.6284H11.4961V47.5964C11.4961 47.419 11.5557 47.2816 11.6751 47.1842C11.7958 47.0868 11.9682 47.0381 12.1921 47.0381C12.4121 47.0381 12.5818 47.0834 12.7011 47.1742C12.8205 47.2662 12.8802 47.3863 12.8802 47.5344C12.8802 47.6558 12.848 47.7572 12.7836 47.8386C12.7192 47.9226 12.6421 47.9833 12.5523 48.0207C12.4557 48.0607 12.3645 48.0914 12.2786 48.1127C12.221 48.1274 12.1432 48.1487 12.0453 48.1768C11.9809 48.1968 11.9487 48.2201 11.9487 48.2468H12.8721V48.637Z" fill="white"/>
<rect x="23.52" width="56" height="56" fill="#D5B753"/>
<path d="M38.1325 26.1332H36.7002V25.1439L38.3736 23.7412H39.7271V30.7992H38.1325V26.1332Z" fill="white"/>
<path d="M41.829 29.8985C41.2351 29.2357 40.9381 28.3596 40.9381 27.2702C40.9381 26.1775 41.2351 25.2998 41.829 24.637C42.4229 23.9742 43.2448 23.6428 44.2948 23.6428C45.3448 23.6428 46.1668 23.9742 46.7607 24.637C47.3546 25.2998 47.6516 26.1775 47.6516 27.2702C47.6516 28.3596 47.3546 29.2357 46.7607 29.8985C46.1635 30.5646 45.3416 30.8976 44.2948 30.8976C43.2481 30.8976 42.4262 30.5646 41.829 29.8985ZM44.2948 29.49C44.8395 29.49 45.2579 29.2849 45.5499 28.8747C45.842 28.4646 45.988 27.9297 45.988 27.2702C45.988 26.6107 45.842 26.0758 45.5499 25.6657C45.2612 25.2588 44.8428 25.0554 44.2948 25.0554C43.7469 25.0554 43.3285 25.2588 43.0398 25.6657C42.7477 26.0758 42.6017 26.6107 42.6017 27.2702C42.6017 27.9297 42.7477 28.4646 43.0398 28.8747C43.3318 29.2849 43.7502 29.49 44.2948 29.49Z" fill="white"/>
<path d="M49.5516 29.8985C48.9577 29.2357 48.6607 28.3596 48.6607 27.2702C48.6607 26.1775 48.9577 25.2998 49.5516 24.637C50.1455 23.9742 50.9675 23.6428 52.0175 23.6428C53.0675 23.6428 53.8894 23.9742 54.4833 24.637C55.0772 25.2998 55.3742 26.1775 55.3742 27.2702C55.3742 28.3596 55.0772 29.2357 54.4833 29.8985C53.8861 30.5646 53.0642 30.8976 52.0175 30.8976C50.9707 30.8976 50.1488 30.5646 49.5516 29.8985ZM52.0175 29.49C52.5622 29.49 52.9805 29.2849 53.2725 28.8747C53.5646 28.4646 53.7106 27.9297 53.7106 27.2702C53.7106 26.6107 53.5646 26.0758 53.2725 25.6657C52.9838 25.2588 52.5654 25.0554 52.0175 25.0554C51.4695 25.0554 51.0511 25.2588 50.7624 25.6657C50.4704 26.0758 50.3243 26.6107 50.3243 27.2702C50.3243 27.9297 50.4704 28.4646 50.7624 28.8747C51.0544 29.2849 51.4728 29.49 52.0175 29.49Z" fill="white"/>
<path d="M61.9994 28.5105L62.0683 27.9543L63.1265 25.7592H65.1445V30.7992H63.6925V27.9051L63.8008 27.3096H63.6827L63.5006 27.9051L62.6442 29.5687H61.2513L60.3949 27.9051L60.2128 27.3096H60.0947L60.2029 27.9051V30.7992H58.751V25.7592H60.7689L61.8272 27.9543L61.8961 28.5105H61.9994Z" fill="white"/>
<path d="M69.4218 26.5664H65.9519V25.769C65.9519 25.5295 66.006 25.3244 66.1143 25.1538C66.2226 24.9832 66.3653 24.8585 66.5425 24.7797C66.7066 24.7108 66.8903 24.6452 67.0938 24.5829C67.1561 24.5664 67.248 24.5435 67.3694 24.5139C67.4941 24.4811 67.5876 24.4565 67.6499 24.4401C67.7123 24.4237 67.7877 24.3991 67.8763 24.3663C67.9649 24.3302 68.0306 24.2941 68.0732 24.258C68.1159 24.2219 68.152 24.176 68.1815 24.1202C68.2143 24.0644 68.2307 24.0021 68.2307 23.9332C68.2307 23.7002 68.0732 23.587 67.7582 23.5936C67.5974 23.5936 67.4744 23.6329 67.3891 23.7117C67.307 23.7871 67.266 23.8856 67.266 24.007V24.0857H66.0552V24.007C66.0552 23.5706 66.2013 23.2326 66.4933 22.9931C66.7886 22.7536 67.2102 22.6338 67.7582 22.6338C68.2963 22.6338 68.7114 22.7454 69.0034 22.9685C69.2955 23.1949 69.4415 23.4902 69.4415 23.8544C69.4415 24.153 69.3627 24.4024 69.2052 24.6025C69.0477 24.8093 68.8591 24.9586 68.6392 25.0504C68.403 25.1489 68.1798 25.2243 67.9698 25.2768C67.8288 25.3129 67.6384 25.3654 67.3989 25.4343C67.2414 25.4836 67.1627 25.541 67.1627 25.6066H69.4218V26.5664Z" fill="white"/>
</svg>
