<svg width="202" height="108" viewBox="0 0 202 108" fill="none" xmlns="http://www.w3.org/2000/svg">
<path opacity="0.2" d="M93.375 0L0 23.625V108H93.375V0Z" fill="#D5B753"/>
<rect y="23.625" width="84.375" height="84.375" fill="#D5B753"/>
<path d="M27.0529 63.9372H25.6143V62.9435L27.2952 61.5345H28.6547V68.624H27.0529V63.9372Z" fill="white"/>
<path d="M33.2923 63.8729C34.1162 63.8729 34.7754 64.0756 35.2698 64.481C35.7609 64.8864 36.0064 65.4747 36.0064 66.246C36.0064 67.0337 35.746 67.6434 35.2253 68.0752C34.698 68.507 33.9597 68.7228 33.0105 68.7228C32.0612 68.7228 31.3262 68.5267 30.8055 68.1345C30.2847 67.7423 30.0244 67.1968 30.0244 66.4981H31.6212C31.6212 66.7354 31.7333 66.9414 31.9574 67.1161C32.1815 67.2908 32.5325 67.3781 33.0105 67.3781C33.462 67.3781 33.8064 67.2809 34.0437 67.0864C34.2843 66.892 34.4046 66.6118 34.4046 66.246C34.4046 65.8669 34.2827 65.5835 34.0388 65.3956C33.7949 65.2045 33.4455 65.1089 32.9907 65.1089C32.5556 65.1089 32.226 65.1781 32.0019 65.3165C31.8107 65.4418 31.6937 65.5456 31.6509 65.628L31.6311 65.6873H30.0244V61.5345H35.5219V62.8347H31.6212V64.3129H31.6509C31.674 64.2833 31.7185 64.2421 31.7844 64.1893C31.8437 64.1432 32.0134 64.0789 32.2936 63.9965C32.5704 63.9141 32.9033 63.8729 33.2923 63.8729Z" fill="white"/>
<path d="M37.8111 67.7192C37.2146 67.0535 36.9163 66.1735 36.9163 65.0792C36.9163 63.9817 37.2146 63.1 37.8111 62.4343C38.4077 61.7685 39.2333 61.4356 40.288 61.4356C41.3427 61.4356 42.1683 61.7685 42.7649 62.4343C43.3614 63.1 43.6597 63.9817 43.6597 65.0792C43.6597 66.1735 43.3614 67.0535 42.7649 67.7192C42.165 68.3883 41.3394 68.7228 40.288 68.7228C39.2366 68.7228 38.411 68.3883 37.8111 67.7192ZM40.288 67.3089C40.8351 67.3089 41.2553 67.1029 41.5487 66.6909C41.842 66.2789 41.9887 65.7417 41.9887 65.0792C41.9887 64.4167 41.842 63.8795 41.5487 63.4675C41.2586 63.0588 40.8384 62.8545 40.288 62.8545C39.7376 62.8545 39.3174 63.0588 39.0273 63.4675C38.734 63.8795 38.5873 64.4167 38.5873 65.0792C38.5873 65.7417 38.734 66.2789 39.0273 66.6909C39.3206 67.1029 39.7409 67.3089 40.288 67.3089Z" fill="white"/>
<path d="M50.3145 66.3251L50.3837 65.7664L51.4467 63.5615H53.4736V68.624H52.0152V65.717L52.124 65.1188H52.0053L51.8224 65.717L50.9622 67.388H49.563L48.7028 65.717L48.5199 65.1188H48.4012L48.51 65.717V68.624H47.0516V63.5615H49.0786L50.1415 65.7664L50.2107 66.3251H50.3145Z" fill="white"/>
<path d="M57.77 64.3723H54.2846V63.5714C54.2846 63.3307 54.339 63.1248 54.4478 62.9534C54.5565 62.782 54.6999 62.6567 54.8779 62.5776C55.0427 62.5084 55.2272 62.4425 55.4316 62.3799C55.4942 62.3634 55.5865 62.3403 55.7084 62.3107C55.8337 62.2777 55.9276 62.253 55.9902 62.2365C56.0529 62.22 56.1287 62.1953 56.2177 62.1624C56.3067 62.1261 56.3726 62.0898 56.4154 62.0536C56.4583 62.0173 56.4945 61.9712 56.5242 61.9152C56.5571 61.8591 56.5736 61.7965 56.5736 61.7273C56.5736 61.4933 56.4154 61.3796 56.099 61.3862C55.9375 61.3862 55.8139 61.4257 55.7282 61.5048C55.6458 61.5806 55.6046 61.6795 55.6046 61.8015V61.8806H54.3884V61.8015C54.3884 61.3631 54.5351 61.0236 54.8284 60.783C55.1251 60.5424 55.5486 60.4221 56.099 60.4221C56.6395 60.4221 57.0565 60.5342 57.3498 60.7583C57.6431 60.9857 57.7898 61.2823 57.7898 61.6482C57.7898 61.9481 57.7107 62.1986 57.5525 62.3997C57.3943 62.6073 57.2048 62.7573 56.984 62.8495C56.7467 62.9484 56.5225 63.0242 56.3116 63.077C56.1699 63.1132 55.9787 63.166 55.7381 63.2352C55.5799 63.2846 55.5008 63.3423 55.5008 63.4082H57.77V64.3723Z" fill="white"/>
<rect x="93.375" width="108" height="108" fill="#D5B753"/>
<path d="M132.946 52.1247H131.507V51.131L133.188 49.722H134.548V56.8115H132.946V52.1247Z" fill="white"/>
<path d="M135.784 54.735H137.475C137.471 54.7515 137.478 54.7878 137.495 54.8438C137.514 54.8965 137.554 54.9674 137.613 55.0564C137.672 55.1421 137.745 55.2195 137.831 55.2888C137.923 55.3679 138.052 55.4338 138.216 55.4865C138.381 55.5392 138.559 55.5656 138.75 55.5656C139.278 55.5656 139.671 55.3975 139.932 55.0613C140.189 54.7318 140.317 54.2819 140.317 53.7117H140.278C140.275 53.715 140.266 53.7232 140.253 53.7364C140.243 53.7496 140.232 53.7644 140.219 53.7809C140.205 53.7941 140.181 53.8138 140.144 53.8402C140.111 53.8666 140.072 53.8962 140.026 53.9292C139.933 53.9951 139.823 54.0577 139.695 54.1171C139.378 54.2588 138.989 54.3297 138.528 54.3297C137.674 54.3297 136.994 54.1204 136.486 53.7018C135.972 53.2832 135.715 52.7295 135.715 52.0406C135.715 51.2925 135.992 50.7025 136.545 50.2708C137.102 49.839 137.857 49.6231 138.81 49.6231C139.887 49.6231 140.692 49.9346 141.222 50.5575C141.746 51.187 142.008 52.0505 142.008 53.1481V53.2964C142.008 54.3676 141.736 55.2377 141.193 55.9067C140.642 56.5758 139.831 56.9103 138.76 56.9103C138.256 56.9103 137.804 56.8444 137.406 56.7126C137.007 56.5807 136.692 56.4028 136.461 56.1786C136.01 55.7403 135.784 55.2591 135.784 54.735ZM138.79 53.0937C139.192 53.0937 139.528 53.0014 139.798 52.8168C140.065 52.6323 140.199 52.3702 140.199 52.0308C140.199 51.7045 140.067 51.4441 139.803 51.2496C139.54 51.0618 139.202 50.9678 138.79 50.9678C138.351 50.9678 138.007 51.0634 137.757 51.2546C137.509 51.4424 137.386 51.7012 137.386 52.0308C137.386 52.3636 137.514 52.624 137.771 52.8119C138.025 52.9998 138.365 53.0937 138.79 53.0937Z" fill="white"/>
<path d="M149.113 56.8115H142.977V55.6892C142.977 55.3563 143.057 55.0531 143.215 54.7795C143.376 54.506 143.595 54.2835 143.872 54.1121C144.278 53.8583 144.894 53.5914 145.721 53.3112C145.992 53.2222 146.221 53.1382 146.408 53.0591C146.596 52.9767 146.779 52.8795 146.957 52.7674C147.139 52.6553 147.274 52.5284 147.363 52.3867C147.455 52.245 147.501 52.0901 147.501 51.922C147.501 51.2859 147.046 50.9678 146.137 50.9678C145.682 50.9678 145.339 51.0667 145.108 51.2645C144.881 51.4622 144.767 51.7391 144.767 52.095V52.3867H143.17V52.095C143.17 51.2776 143.421 50.6613 143.922 50.246C144.426 49.8307 145.164 49.6231 146.137 49.6231C147.099 49.6231 147.834 49.8192 148.342 50.2114C148.849 50.6036 149.103 51.1738 149.103 51.922C149.103 52.3439 148.997 52.7147 148.786 53.0344C148.569 53.3607 148.302 53.6144 147.986 53.7957C147.656 53.9902 147.31 54.1616 146.947 54.3099C146.562 54.4681 146.216 54.595 145.909 54.6906C145.583 54.7894 145.316 54.9048 145.108 55.0366C144.894 55.1718 144.787 55.3151 144.787 55.4667H149.113V56.8115Z" fill="white"/>
<path d="M155.763 54.5126L155.832 53.9539L156.895 51.749H158.922V56.8115H157.463V53.9045L157.572 53.3063H157.453L157.271 53.9045L156.41 55.5755H155.011L154.151 53.9045L153.968 53.3063H153.849L153.958 53.9045V56.8115H152.5V51.749H154.527L155.59 53.9539L155.659 54.5126H155.763Z" fill="white"/>
<path d="M163.218 52.5598H159.733V51.7589C159.733 51.5182 159.787 51.3123 159.896 51.1409C160.005 50.9695 160.148 50.8442 160.326 50.7651C160.491 50.6959 160.675 50.63 160.88 50.5674C160.942 50.5509 161.035 50.5278 161.157 50.4982C161.282 50.4652 161.376 50.4405 161.438 50.424C161.501 50.4075 161.577 50.3828 161.666 50.3499C161.755 50.3136 161.821 50.2773 161.864 50.2411C161.906 50.2048 161.943 50.1587 161.972 50.1027C162.005 50.0466 162.022 49.984 162.022 49.9148C162.022 49.6808 161.864 49.5671 161.547 49.5737C161.386 49.5737 161.262 49.6132 161.176 49.6923C161.094 49.7681 161.053 49.867 161.053 49.989V50.0681H159.837V49.989C159.837 49.5506 159.983 49.2111 160.277 48.9705C160.573 48.7299 160.997 48.6096 161.547 48.6096C162.088 48.6096 162.505 48.7217 162.798 48.9458C163.091 49.1732 163.238 49.4698 163.238 49.8357C163.238 50.1356 163.159 50.3861 163.001 50.5872C162.842 50.7948 162.653 50.9448 162.432 51.037C162.195 51.1359 161.971 51.2117 161.76 51.2645C161.618 51.3007 161.427 51.3535 161.186 51.4227C161.028 51.4721 160.949 51.5298 160.949 51.5957H163.218V52.5598Z" fill="white"/>
</svg>
