<svg width="150" height="84" viewBox="0 0 150 84" fill="none" xmlns="http://www.w3.org/2000/svg">
<path opacity="0.2" d="M65.2924 0L0.33252 27.9999V83.9998H65.2924V0Z" fill="#D5B753"/>
<rect x="0.33252" y="28" width="55.9999" height="55.9999" fill="#D5B753"/>
<path d="M14.945 54.1327H13.5127V53.1435L15.1861 51.7407H16.5396V58.7987H14.945V54.1327Z" fill="white"/>
<path d="M18.6415 57.898C18.0476 57.2352 17.7506 56.3591 17.7506 55.2697C17.7506 54.177 18.0476 53.2993 18.6415 52.6365C19.2354 51.9737 20.0573 51.6423 21.1073 51.6423C22.1573 51.6423 22.9793 51.9737 23.5732 52.6365C24.1671 53.2993 24.464 54.177 24.464 55.2697C24.464 56.3591 24.1671 57.2352 23.5732 57.898C22.976 58.5641 22.154 58.8971 21.1073 58.8971C20.0606 58.8971 19.2387 58.5641 18.6415 57.898ZM21.1073 57.4895C21.652 57.4895 22.0704 57.2844 22.3624 56.8742C22.6544 56.4641 22.8004 55.9292 22.8004 55.2697C22.8004 54.6102 22.6544 54.0753 22.3624 53.6652C22.0737 53.2583 21.6553 53.0549 21.1073 53.0549C20.5594 53.0549 20.141 53.2583 19.8523 53.6652C19.5602 54.0753 19.4142 54.6102 19.4142 55.2697C19.4142 55.9292 19.5602 56.4641 19.8523 56.8742C20.1443 57.2844 20.5626 57.4895 21.1073 57.4895Z" fill="white"/>
<path d="M26.3641 57.898C25.7702 57.2352 25.4732 56.3591 25.4732 55.2697C25.4732 54.177 25.7702 53.2993 26.3641 52.6365C26.958 51.9737 27.7799 51.6423 28.8299 51.6423C29.8799 51.6423 30.7019 51.9737 31.2958 52.6365C31.8897 53.2993 32.1866 54.177 32.1866 55.2697C32.1866 56.3591 31.8897 57.2352 31.2958 57.898C30.6986 58.5641 29.8766 58.8971 28.8299 58.8971C27.7832 58.8971 26.9613 58.5641 26.3641 57.898ZM28.8299 57.4895C29.3746 57.4895 29.793 57.2844 30.085 56.8742C30.377 56.4641 30.523 55.9292 30.523 55.2697C30.523 54.6102 30.377 54.0753 30.085 53.6652C29.7963 53.2583 29.3779 53.0549 28.8299 53.0549C28.282 53.0549 27.8636 53.2583 27.5749 53.6652C27.2828 54.0753 27.1368 54.6102 27.1368 55.2697C27.1368 55.9292 27.2828 56.4641 27.5749 56.8742C27.8669 57.2844 28.2852 57.4895 28.8299 57.4895Z" fill="white"/>
<path d="M38.8119 56.51L38.8808 55.9538L39.939 53.7587H41.9569V58.7987H40.505V55.9046L40.6133 55.3091H40.4951L40.313 55.9046L39.4566 57.5682H38.0637L37.2073 55.9046L37.0252 55.3091H36.9071L37.0154 55.9046V58.7987H35.5634V53.7587H37.5814L38.6396 55.9538L38.7085 56.51H38.8119Z" fill="white"/>
<path d="M46.2342 54.5659H42.7643V53.7685C42.7643 53.529 42.8184 53.3239 42.9267 53.1533C43.035 52.9827 43.1777 52.858 43.3549 52.7792C43.519 52.7103 43.7027 52.6447 43.9062 52.5824C43.9685 52.566 44.0604 52.543 44.1818 52.5135C44.3065 52.4806 44.4 52.456 44.4624 52.4396C44.5247 52.4232 44.6002 52.3986 44.6888 52.3658C44.7773 52.3297 44.843 52.2936 44.8856 52.2575C44.9283 52.2214 44.9644 52.1755 44.9939 52.1197C45.0267 52.0639 45.0431 52.0016 45.0431 51.9327C45.0431 51.6997 44.8856 51.5865 44.5706 51.5931C44.4099 51.5931 44.2868 51.6324 44.2015 51.7112C44.1195 51.7867 44.0784 51.8851 44.0784 52.0065V52.0853H42.8677V52.0065C42.8677 51.5701 43.0137 51.2321 43.3057 50.9926C43.601 50.7531 44.0227 50.6333 44.5706 50.6333C45.1088 50.6333 45.5238 50.7449 45.8159 50.968C46.1079 51.1944 46.2539 51.4897 46.2539 51.8539C46.2539 52.1525 46.1752 52.4019 46.0177 52.602C45.8602 52.8088 45.6715 52.9581 45.4516 53.0499C45.2154 53.1484 44.9923 53.2238 44.7823 53.2763C44.6412 53.3124 44.4509 53.3649 44.2113 53.4338C44.0538 53.4831 43.9751 53.5405 43.9751 53.6061H46.2342V54.5659Z" fill="white"/>
<rect x="65.2925" width="83.9998" height="83.9998" fill="#D5B753"/>
<path d="M92.7853 40.1327H91.353V39.1435L93.0265 37.7407H94.38V44.7987H92.7853V40.1327Z" fill="white"/>
<path d="M98.9969 40.0688C99.8172 40.0688 100.473 40.2706 100.966 40.6741C101.455 41.0777 101.699 41.6634 101.699 42.4313C101.699 43.2155 101.44 43.8225 100.921 44.2523C100.396 44.6822 99.6613 44.8971 98.7163 44.8971C97.7713 44.8971 97.0396 44.7019 96.5212 44.3114C96.0027 43.9209 95.7435 43.3779 95.7435 42.6823H97.3333C97.3333 42.9185 97.4448 43.1236 97.668 43.2975C97.8911 43.4714 98.2406 43.5584 98.7163 43.5584C99.1659 43.5584 99.5087 43.4616 99.745 43.268C99.9845 43.0744 100.104 42.7955 100.104 42.4313C100.104 42.0539 99.9829 41.7717 99.7401 41.5847C99.4973 41.3944 99.1495 41.2992 98.6966 41.2992C98.2635 41.2992 97.9354 41.3681 97.7123 41.5059C97.522 41.6306 97.4055 41.734 97.3628 41.816L97.3431 41.8751H95.7435V37.7407H101.217V39.0352H97.3333V40.5068H97.3628C97.3858 40.4773 97.4301 40.4363 97.4957 40.3838C97.5548 40.3378 97.7238 40.2738 98.0027 40.1918C98.2783 40.1098 98.6097 40.0688 98.9969 40.0688Z" fill="white"/>
<path d="M103.496 43.898C102.902 43.2352 102.605 42.3591 102.605 41.2697C102.605 40.177 102.902 39.2993 103.496 38.6365C104.09 37.9737 104.912 37.6423 105.962 37.6423C107.012 37.6423 107.833 37.9737 108.427 38.6365C109.021 39.2993 109.318 40.177 109.318 41.2697C109.318 42.3591 109.021 43.2352 108.427 43.898C107.83 44.5641 107.008 44.8971 105.962 44.8971C104.915 44.8971 104.093 44.5641 103.496 43.898ZM105.962 43.4895C106.506 43.4895 106.925 43.2844 107.217 42.8742C107.509 42.4641 107.655 41.9292 107.655 41.2697C107.655 40.6102 107.509 40.0753 107.217 39.6652C106.928 39.2583 106.509 39.0549 105.962 39.0549C105.414 39.0549 104.995 39.2583 104.706 39.6652C104.414 40.0753 104.268 40.6102 104.268 41.2697C104.268 41.9292 104.414 42.4641 104.706 42.8742C104.998 43.2844 105.417 43.4895 105.962 43.4895Z" fill="white"/>
<path d="M115.943 42.51L116.012 41.9538L117.071 39.7587H119.089V44.7987H117.637V41.9046L117.745 41.3091H117.627L117.445 41.9046L116.588 43.5682H115.195L114.339 41.9046L114.157 41.3091H114.039L114.147 41.9046V44.7987H112.695V39.7587H114.713L115.771 41.9538L115.84 42.51H115.943Z" fill="white"/>
<path d="M123.366 40.5659H119.896V39.7685C119.896 39.529 119.95 39.3239 120.058 39.1533C120.167 38.9827 120.309 38.858 120.487 38.7792C120.651 38.7103 120.834 38.6447 121.038 38.5824C121.1 38.566 121.192 38.543 121.313 38.5135C121.438 38.4806 121.532 38.456 121.594 38.4396C121.656 38.4232 121.732 38.3986 121.82 38.3658C121.909 38.3297 121.975 38.2936 122.017 38.2575C122.06 38.2214 122.096 38.1755 122.125 38.1197C122.158 38.0639 122.175 38.0016 122.175 37.9327C122.175 37.6997 122.017 37.5865 121.702 37.5931C121.541 37.5931 121.418 37.6324 121.333 37.7112C121.251 37.7867 121.21 37.8851 121.21 38.0065V38.0853H119.999V38.0065C119.999 37.5701 120.145 37.2321 120.437 36.9926C120.733 36.7531 121.154 36.6333 121.702 36.6333C122.24 36.6333 122.655 36.7449 122.947 36.968C123.239 37.1944 123.385 37.4897 123.385 37.8539C123.385 38.1525 123.307 38.4019 123.149 38.602C122.992 38.8088 122.803 38.9581 122.583 39.0499C122.347 39.1484 122.124 39.2238 121.914 39.2763C121.773 39.3124 121.582 39.3649 121.343 39.4338C121.185 39.4831 121.107 39.5405 121.107 39.6061H123.366V40.5659Z" fill="white"/>
</svg>
